# xmcd CD database file
#
# Track frame offsets:
#	150
#	24528
#	51071
#	83380
#	110116
#	123700
#	149212
#	177139
#	223132
#
# Disc length: 3313 seconds
#
# Revision: 0
# Processed by: cddbd v1.5.2PL0 Copyright (c) Steve Scherf et al.
# Submitted via: CDex 1.51
#
DISCID=850cef09
DTITLE=Don Lanphere - Where Do You Start?
DYEAR=2002
DGENRE=Jazz
TTITLE0=Ragazza de la Mer
TTITLE1=All Across the City
TTITLE2=Blues Away
TTITLE3=Ming's Dream
TTITLE4=Methuselah's Big Duck
TTITLE5=Wilke's Grin
TTITLE6=Where Do You Start?
TTITLE7=The Scene Is Clean
TTITLE8=Cottage For Sale
EXTD=YEAR: 2002
EXTT0=
EXTT1=
EXTT2=
EXTT3=
EXTT4=
EXTT5=
EXTT6=
EXTT7=
EXTT8=
PLAYORDER=
